<svg xmlns="http://www.w3.org/2000/svg" width="16.25" height="15" viewBox="0 0 16.25 15"><defs><style>.a{fill:#777;}</style></defs><g transform="translate(-3.375 -4.5)"><path class="a" d="M4.625,24.383h13.75a1.24,1.24,0,0,0,1.25-1.233v-7.4H3.375v7.4A1.24,1.24,0,0,0,4.625,24.383Z" transform="translate(0 -4.883)"/><path class="a" d="M18.375,6.967h-.312V6.658a.311.311,0,0,0-.312-.308H16.5a.311.311,0,0,0-.312.308v.308H15.094V5.733A1.245,1.245,0,0,0,13.844,4.5H9.156a1.245,1.245,0,0,0-1.25,1.233V6.967H6.813V6.658A.311.311,0,0,0,6.5,6.35H5.25a.311.311,0,0,0-.312.308v.308H4.625A1.24,1.24,0,0,0,3.375,8.2V9.741h16.25V8.2A1.24,1.24,0,0,0,18.375,6.967ZM14,6.967H9V5.887a.311.311,0,0,1,.313-.308h4.375A.311.311,0,0,1,14,5.887Z"/></g></svg>