<svg xmlns="http://www.w3.org/2000/svg" width="16.667" height="15" viewBox="0 0 16.667 15"><defs><style>.a{fill:#777;}</style></defs><path class="a" d="M11.333,7.833V4.5H3v15H19.667V7.833Zm-5,10H4.667V16.167H6.333Zm0-3.333H4.667V12.833H6.333Zm0-3.333H4.667V9.5H6.333Zm0-3.333H4.667V6.167H6.333Zm3.333,10H8V16.167H9.667Zm0-3.333H8V12.833H9.667Zm0-3.333H8V9.5H9.667Zm0-3.333H8V6.167H9.667Zm8.333,10H11.333V16.167H13V14.5H11.333V12.833H13V11.167H11.333V9.5H18Zm-1.667-6.667H14.667v1.667h1.667Zm0,3.333H14.667v1.667h1.667Z" transform="translate(-3 -4.5)"/></svg>